<?xml version="1.0" encoding="UTF-8"?>
<svg xmlns="http://www.w3.org/2000/svg" width="1032" height="879" viewBox="0 0 1032 879" role="img" aria-labelledby="title desc">
  <title id="title">02 / Autoshift shared keymap layer</title>
  <desc id="desc">AutoShift: hold a key briefly to get its shifted version.</desc>
  <style>
    .title { font: 800 28px Inter, Avenir Next, Segoe UI, sans-serif; fill: #cad3f5; letter-spacing: .2px; }
    .subtitle { font: 500 14px Inter, Avenir Next, Segoe UI, sans-serif; fill: #a5adcb; }
    .legend-text { font: 600 12px Inter, Avenir Next, Segoe UI, sans-serif; fill: #b8c0e0; }
    .tap { font-family: Berkeley Mono, SFMono-Regular, Consolas, Liberation Mono, monospace; font-weight: 800; text-anchor: middle; dominant-baseline: central; }
    .tap.transparent { font-size: 16px; fill: #6e738d; }
    .hold { font: 800 10px Inter, Avenir Next, Segoe UI, sans-serif; text-anchor: middle; dominant-baseline: central; }
    .key { stroke: rgba(202,211,245,.22); stroke-width: 1.4; }
    .ghost-key { fill: transparent; stroke: rgba(202,211,245,.13); stroke-width: 1; stroke-dasharray: 4 7; }
    .corne-disabled-thumb rect { fill: rgba(138,173,244,.08); stroke: #8aadf4; stroke-width: 1.25; stroke-dasharray: 5 5; }
    .corne-disabled-thumb text { font: 800 9px Inter, Avenir Next, Segoe UI, sans-serif; fill: #8aadf4; text-anchor: middle; letter-spacing: .15px; opacity: .88; }
    .keyboard-boundary { fill: transparent; stroke-width: 3; opacity: .74; }
    .layer-activator { opacity: .96; filter: drop-shadow(0 1px 2px rgba(24,25,38,.8)); }
    .layer-activator * { stroke: #24273a; stroke-width: 1.15; }
    .outline-legend-line { stroke-width: 4; stroke-linecap: round; }
    .shortcut path { fill: none; stroke: #8bd5ca; stroke-width: 1.2; opacity: .62; stroke-linecap: round; }
    .shortcut circle { fill: #8bd5ca; stroke: #24273a; stroke-width: 1.5; }
    .shortcut rect { fill: #181926; stroke: #8bd5ca; stroke-width: 1.2; }
    .shortcut text { font: 800 11px Inter, Avenir Next, Segoe UI, sans-serif; fill: #cad3f5; text-anchor: middle; letter-spacing: .2px; }
  </style>
  <rect x="0" y="0" width="1032" height="879" rx="28" fill="#24273a"/>
  <circle cx="105" cy="42" r="140" fill="#c6a0f6" opacity="0.10"/>
  <circle cx="902" cy="70" r="190" fill="#8aadf4" opacity="0.10"/>
  <text x="60" y="50" class="title">02 / Autoshift</text>
  <text x="60" y="78" class="subtitle">AutoShift: hold a key briefly to get its shifted version.</text>
  <rect x="60" y="114" width="14" height="14" rx="3" fill="#363a4f"/>
<text x="80" y="126" class="legend-text">Transparent</text>
<rect x="171" y="114" width="14" height="14" rx="3" fill="#8bd5ca"/>
<text x="191" y="126" class="legend-text">AutoShift</text>
<rect x="268" y="114" width="14" height="14" rx="3" fill="#f5a97f"/>
<text x="288" y="126" class="legend-text">Layer Switch</text>
<rect x="386" y="114" width="14" height="14" rx="3" fill="#a6da95"/>
<text x="406" y="126" class="legend-text">Modifier</text>
  <g transform="translate(60 256)">
    <rect class="ghost-key" x="108" y="0" width="48" height="48" rx="8"/>
    <rect class="ghost-key" x="162" y="0" width="48" height="48" rx="8"/>
    <rect class="ghost-key" x="216" y="0" width="48" height="48" rx="8"/>
    <rect class="ghost-key" x="270" y="0" width="48" height="48" rx="8"/>
    <rect class="ghost-key" x="324" y="0" width="48" height="48" rx="8"/>
    <rect class="ghost-key" x="594" y="0" width="48" height="48" rx="8"/>
    <rect class="ghost-key" x="648" y="0" width="48" height="48" rx="8"/>
    <rect class="ghost-key" x="702" y="0" width="48" height="48" rx="8"/>
    <rect class="ghost-key" x="756" y="0" width="48" height="48" rx="8"/>
    <rect class="ghost-key" x="810" y="0" width="48" height="48" rx="8"/>
    <rect class="ghost-key" x="54" y="64.8" width="48" height="48" rx="8"/>
    <rect class="ghost-key" x="108" y="64.8" width="48" height="48" rx="8"/>
    <rect class="ghost-key" x="162" y="64.8" width="48" height="48" rx="8"/>
    <rect class="ghost-key" x="216" y="64.8" width="48" height="48" rx="8"/>
    <rect class="ghost-key" x="270" y="64.8" width="48" height="48" rx="8"/>
    <rect class="ghost-key" x="324" y="64.8" width="48" height="48" rx="8"/>
    <rect class="ghost-key" x="594" y="64.8" width="48" height="48" rx="8"/>
    <rect class="ghost-key" x="648" y="64.8" width="48" height="48" rx="8"/>
    <rect class="ghost-key" x="702" y="64.8" width="48" height="48" rx="8"/>
    <rect class="ghost-key" x="756" y="64.8" width="48" height="48" rx="8"/>
    <rect class="ghost-key" x="810" y="64.8" width="48" height="48" rx="8"/>
    <rect class="ghost-key" x="864" y="64.8" width="48" height="48" rx="8"/>
    <rect class="ghost-key" x="54" y="129.6" width="48" height="48" rx="8"/>
    <rect class="ghost-key" x="108" y="129.6" width="48" height="48" rx="8"/>
    <rect class="ghost-key" x="162" y="129.6" width="48" height="48" rx="8"/>
    <rect class="ghost-key" x="216" y="129.6" width="48" height="48" rx="8"/>
    <rect class="ghost-key" x="270" y="129.6" width="48" height="48" rx="8"/>
    <rect class="ghost-key" x="324" y="129.6" width="48" height="48" rx="8"/>
    <rect class="ghost-key" x="594" y="129.6" width="48" height="48" rx="8"/>
    <rect class="ghost-key" x="648" y="129.6" width="48" height="48" rx="8"/>
    <rect class="ghost-key" x="702" y="129.6" width="48" height="48" rx="8"/>
    <rect class="ghost-key" x="756" y="129.6" width="48" height="48" rx="8"/>
    <rect class="ghost-key" x="810" y="129.6" width="48" height="48" rx="8"/>
    <rect class="ghost-key" x="864" y="129.6" width="48" height="48" rx="8"/>
    <rect class="ghost-key" x="54" y="194.4" width="48" height="48" rx="8"/>
    <rect class="ghost-key" x="108" y="194.4" width="48" height="48" rx="8"/>
    <rect class="ghost-key" x="162" y="194.4" width="48" height="48" rx="8"/>
    <rect class="ghost-key" x="216" y="194.4" width="48" height="48" rx="8"/>
    <rect class="ghost-key" x="270" y="194.4" width="48" height="48" rx="8"/>
    <rect class="ghost-key" x="324" y="194.4" width="48" height="48" rx="8"/>
    <rect class="ghost-key" x="594" y="194.4" width="48" height="48" rx="8"/>
    <rect class="ghost-key" x="648" y="194.4" width="48" height="48" rx="8"/>
    <rect class="ghost-key" x="702" y="194.4" width="48" height="48" rx="8"/>
    <rect class="ghost-key" x="756" y="194.4" width="48" height="48" rx="8"/>
    <rect class="ghost-key" x="810" y="194.4" width="48" height="48" rx="8"/>
    <rect class="ghost-key" x="864" y="194.4" width="48" height="48" rx="8"/>
    <rect class="ghost-key" x="54" y="259.2" width="48" height="48" rx="8"/>
    <rect class="ghost-key" x="108" y="259.2" width="48" height="48" rx="8"/>
    <rect class="ghost-key" x="162" y="259.2" width="48" height="48" rx="8"/>
    <rect class="ghost-key" x="216" y="259.2" width="48" height="48" rx="8"/>
    <rect class="ghost-key" x="270" y="259.2" width="48" height="48" rx="8"/>
    <rect class="ghost-key" x="324" y="259.2" width="48" height="48" rx="8"/>
    <rect class="ghost-key" x="291.6" y="388.8" width="48" height="48" rx="8"/>
    <rect class="ghost-key" x="345.6" y="388.8" width="48" height="48" rx="8"/>
    <rect class="ghost-key" x="399.6" y="388.8" width="48" height="48" rx="8"/>
    <rect class="ghost-key" x="518.4" y="388.8" width="48" height="48" rx="8"/>
    <rect class="ghost-key" x="572.4" y="388.8" width="48" height="48" rx="8"/>
    <rect class="ghost-key" x="626.4" y="388.8" width="48" height="48" rx="8"/>
    <rect class="ghost-key" x="594" y="259.2" width="48" height="48" rx="8"/>
    <rect class="ghost-key" x="648" y="259.2" width="48" height="48" rx="8"/>
    <rect class="ghost-key" x="702" y="259.2" width="48" height="48" rx="8"/>
    <rect class="ghost-key" x="756" y="259.2" width="48" height="48" rx="8"/>
    <rect class="ghost-key" x="810" y="259.2" width="48" height="48" rx="8"/>
    <rect class="ghost-key" x="864" y="259.2" width="48" height="48" rx="8"/>
    <rect class="ghost-key" x="54" y="324" width="48" height="48" rx="8"/>
    <rect class="ghost-key" x="108" y="324" width="48" height="48" rx="8"/>
    <rect class="ghost-key" x="162" y="324" width="48" height="48" rx="8"/>
    <rect class="ghost-key" x="216" y="324" width="48" height="48" rx="8"/>
    <rect class="ghost-key" x="270" y="324" width="48" height="48" rx="8"/>
    <rect class="ghost-key" x="291.6" y="459" width="48" height="48" rx="8"/>
    <rect class="ghost-key" x="345.6" y="459" width="48" height="48" rx="8"/>
    <rect class="ghost-key" x="399.6" y="459" width="48" height="48" rx="8"/>
    <rect class="ghost-key" x="518.4" y="459" width="48" height="48" rx="8"/>
    <rect class="ghost-key" x="572.4" y="459" width="48" height="48" rx="8"/>
    <rect class="ghost-key" x="626.4" y="459" width="48" height="48" rx="8"/>
    <rect class="ghost-key" x="648" y="324" width="48" height="48" rx="8"/>
    <rect class="ghost-key" x="702" y="324" width="48" height="48" rx="8"/>
    <rect class="ghost-key" x="756" y="324" width="48" height="48" rx="8"/>
    <rect class="ghost-key" x="810" y="324" width="48" height="48" rx="8"/>
    <rect class="ghost-key" x="864" y="324" width="48" height="48" rx="8"/>
    <g class="corne-disabled-thumb" aria-label="Corne disabled thumb key">
          <rect x="237.60000000000002" y="459" width="48" height="48" rx="8"/>
          <text x="261.6" y="479">Corne</text>
          <text x="261.6" y="493">off</text>
        </g>
        <g class="corne-disabled-thumb" aria-label="Corne disabled thumb key">
          <rect x="680.4" y="459" width="48" height="48" rx="8"/>
          <text x="704.4" y="479">Corne</text>
          <text x="704.4" y="493">off</text>
        </g>
    <rect class="key" x="108" y="0" width="48" height="48" rx="8" fill="#363a4f"/>
    <text x="132" y="25" class="tap transparent">↓</text>
    <rect class="key" x="162" y="0" width="48" height="48" rx="8" fill="#363a4f"/>
    <text x="186" y="25" class="tap transparent">↓</text>
    <rect class="key" x="216" y="0" width="48" height="48" rx="8" fill="#363a4f"/>
    <text x="240" y="25" class="tap transparent">↓</text>
    <rect class="key" x="270" y="0" width="48" height="48" rx="8" fill="#363a4f"/>
    <text x="294" y="25" class="tap transparent">↓</text>
    <rect class="key" x="324" y="0" width="48" height="48" rx="8" fill="#363a4f"/>
    <text x="348" y="25" class="tap transparent">↓</text>
    <rect class="key" x="594" y="0" width="48" height="48" rx="8" fill="#363a4f"/>
    <text x="618" y="25" class="tap transparent">↓</text>
    <rect class="key" x="648" y="0" width="48" height="48" rx="8" fill="#363a4f"/>
    <text x="672" y="25" class="tap transparent">↓</text>
    <rect class="key" x="702" y="0" width="48" height="48" rx="8" fill="#363a4f"/>
    <text x="726" y="25" class="tap transparent">↓</text>
    <rect class="key" x="756" y="0" width="48" height="48" rx="8" fill="#363a4f"/>
    <text x="780" y="25" class="tap transparent">↓</text>
    <rect class="key" x="810" y="0" width="48" height="48" rx="8" fill="#363a4f"/>
    <text x="834" y="25" class="tap transparent">↓</text>
    <rect class="key" x="54" y="64.8" width="48" height="48" rx="8" fill="#8bd5ca"/>
    <text x="78" y="90.8" class="tap" style="font-size:17px;fill:#24273a">=</text>
    <rect class="key" x="108" y="64.8" width="48" height="48" rx="8" fill="#8bd5ca"/>
    <text x="132" y="90.8" class="tap" style="font-size:17px;fill:#24273a">1</text>
    <rect class="key" x="162" y="64.8" width="48" height="48" rx="8" fill="#8bd5ca"/>
    <text x="186" y="90.8" class="tap" style="font-size:17px;fill:#24273a">2</text>
    <rect class="key" x="216" y="64.8" width="48" height="48" rx="8" fill="#8bd5ca"/>
    <text x="240" y="90.8" class="tap" style="font-size:17px;fill:#24273a">3</text>
    <rect class="key" x="270" y="64.8" width="48" height="48" rx="8" fill="#8bd5ca"/>
    <text x="294" y="90.8" class="tap" style="font-size:17px;fill:#24273a">4</text>
    <rect class="key" x="324" y="64.8" width="48" height="48" rx="8" fill="#8bd5ca"/>
    <text x="348" y="90.8" class="tap" style="font-size:17px;fill:#24273a">5</text>
    <rect class="key" x="594" y="64.8" width="48" height="48" rx="8" fill="#8bd5ca"/>
    <text x="618" y="90.8" class="tap" style="font-size:17px;fill:#24273a">6</text>
    <rect class="key" x="648" y="64.8" width="48" height="48" rx="8" fill="#8bd5ca"/>
    <text x="672" y="90.8" class="tap" style="font-size:17px;fill:#24273a">7</text>
    <rect class="key" x="702" y="64.8" width="48" height="48" rx="8" fill="#8bd5ca"/>
    <text x="726" y="90.8" class="tap" style="font-size:17px;fill:#24273a">8</text>
    <rect class="key" x="756" y="64.8" width="48" height="48" rx="8" fill="#8bd5ca"/>
    <text x="780" y="90.8" class="tap" style="font-size:17px;fill:#24273a">9</text>
    <rect class="key" x="810" y="64.8" width="48" height="48" rx="8" fill="#8bd5ca"/>
    <text x="834" y="90.8" class="tap" style="font-size:17px;fill:#24273a">0</text>
    <rect class="key" x="864" y="64.8" width="48" height="48" rx="8" fill="#8bd5ca"/>
    <text x="888" y="90.8" class="tap" style="font-size:17px;fill:#24273a">-</text>
    <rect class="key" x="54" y="129.6" width="48" height="48" rx="8" fill="#363a4f"/>
    <text x="78" y="154.6" class="tap transparent">↓</text>
    <rect class="key" x="108" y="129.6" width="48" height="48" rx="8" fill="#8bd5ca"/>
    <text x="132" y="155.6" class="tap" style="font-size:17px;fill:#24273a">Q</text>
    <rect class="key" x="162" y="129.6" width="48" height="48" rx="8" fill="#8bd5ca"/>
    <text x="186" y="155.6" class="tap" style="font-size:17px;fill:#24273a">W</text>
    <rect class="key" x="216" y="129.6" width="48" height="48" rx="8" fill="#8bd5ca"/>
    <text x="240" y="155.6" class="tap" style="font-size:17px;fill:#24273a">E</text>
    <rect class="key" x="270" y="129.6" width="48" height="48" rx="8" fill="#8bd5ca"/>
    <text x="294" y="155.6" class="tap" style="font-size:17px;fill:#24273a">R</text>
    <rect class="key" x="324" y="129.6" width="48" height="48" rx="8" fill="#8bd5ca"/>
    <text x="348" y="155.6" class="tap" style="font-size:17px;fill:#24273a">T</text>
    <rect class="key" x="594" y="129.6" width="48" height="48" rx="8" fill="#8bd5ca"/>
    <text x="618" y="155.6" class="tap" style="font-size:17px;fill:#24273a">Y</text>
    <rect class="key" x="648" y="129.6" width="48" height="48" rx="8" fill="#8bd5ca"/>
    <text x="672" y="155.6" class="tap" style="font-size:17px;fill:#24273a">U</text>
    <rect class="key" x="702" y="129.6" width="48" height="48" rx="8" fill="#8bd5ca"/>
    <text x="726" y="155.6" class="tap" style="font-size:17px;fill:#24273a">I</text>
    <rect class="key" x="756" y="129.6" width="48" height="48" rx="8" fill="#8bd5ca"/>
    <text x="780" y="155.6" class="tap" style="font-size:17px;fill:#24273a">O</text>
    <rect class="key" x="810" y="129.6" width="48" height="48" rx="8" fill="#8bd5ca"/>
    <text x="834" y="155.6" class="tap" style="font-size:17px;fill:#24273a">P</text>
    <rect class="key" x="864" y="129.6" width="48" height="48" rx="8" fill="#8bd5ca"/>
    <text x="888" y="155.6" class="tap" style="font-size:17px;fill:#24273a">\</text>
    <rect class="key" x="54" y="194.4" width="48" height="48" rx="8" fill="#363a4f"/>
    <text x="78" y="219.4" class="tap transparent">↓</text>
    <rect class="key" x="108" y="194.4" width="48" height="48" rx="8" fill="#8bd5ca"/>
    <text x="132" y="220.4" class="tap" style="font-size:17px;fill:#24273a">A</text>
    <rect class="key" x="162" y="194.4" width="48" height="48" rx="8" fill="#8bd5ca"/>
    <text x="186" y="220.4" class="tap" style="font-size:17px;fill:#24273a">S</text>
    <rect class="key" x="216" y="194.4" width="48" height="48" rx="8" fill="#8bd5ca"/>
    <text x="240" y="220.4" class="tap" style="font-size:17px;fill:#24273a">D</text>
    <rect class="key" x="270" y="194.4" width="48" height="48" rx="8" fill="#8bd5ca"/>
    <text x="294" y="220.4" class="tap" style="font-size:17px;fill:#24273a">F</text>
    <rect class="key" x="324" y="194.4" width="48" height="48" rx="8" fill="#8bd5ca"/>
    <text x="348" y="220.4" class="tap" style="font-size:17px;fill:#24273a">G</text>
    <rect class="key" x="594" y="194.4" width="48" height="48" rx="8" fill="#8bd5ca"/>
    <text x="618" y="220.4" class="tap" style="font-size:17px;fill:#24273a">H</text>
    <rect class="key" x="648" y="194.4" width="48" height="48" rx="8" fill="#8bd5ca"/>
    <text x="672" y="220.4" class="tap" style="font-size:17px;fill:#24273a">J</text>
    <rect class="key" x="702" y="194.4" width="48" height="48" rx="8" fill="#8bd5ca"/>
    <text x="726" y="220.4" class="tap" style="font-size:17px;fill:#24273a">K</text>
    <rect class="key" x="756" y="194.4" width="48" height="48" rx="8" fill="#8bd5ca"/>
    <text x="780" y="220.4" class="tap" style="font-size:17px;fill:#24273a">L</text>
    <rect class="key" x="810" y="194.4" width="48" height="48" rx="8" fill="#8bd5ca"/>
    <text x="834" y="220.4" class="tap" style="font-size:17px;fill:#24273a">;</text>
    <rect class="key" x="864" y="194.4" width="48" height="48" rx="8" fill="#8bd5ca"/>
    <text x="888" y="220.4" class="tap" style="font-size:17px;fill:#24273a">&apos;</text>
    <rect class="key" x="54" y="259.2" width="48" height="48" rx="8" fill="#8bd5ca"/>
    <text x="78" y="285.2" class="tap" style="font-size:17px;fill:#24273a">`</text>
    <rect class="key" x="108" y="259.2" width="48" height="48" rx="8" fill="#8bd5ca"/>
    <text x="132" y="285.2" class="tap" style="font-size:17px;fill:#24273a">Z</text>
    <rect class="key" x="162" y="259.2" width="48" height="48" rx="8" fill="#8bd5ca"/>
    <text x="186" y="285.2" class="tap" style="font-size:17px;fill:#24273a">X</text>
    <rect class="key" x="216" y="259.2" width="48" height="48" rx="8" fill="#8bd5ca"/>
    <text x="240" y="285.2" class="tap" style="font-size:17px;fill:#24273a">C</text>
    <rect class="key" x="270" y="259.2" width="48" height="48" rx="8" fill="#8bd5ca"/>
    <text x="294" y="285.2" class="tap" style="font-size:17px;fill:#24273a">V</text>
    <rect class="key" x="324" y="259.2" width="48" height="48" rx="8" fill="#8bd5ca"/>
    <text x="348" y="285.2" class="tap" style="font-size:17px;fill:#24273a">B</text>
    <rect class="key" x="291.6" y="388.8" width="48" height="48" rx="8" fill="#363a4f"/>
    <text x="315.6" y="413.8" class="tap transparent">↓</text>
    <rect class="key" x="345.6" y="388.8" width="48" height="48" rx="8" fill="#363a4f"/>
    <text x="369.6" y="413.8" class="tap transparent">↓</text>
    <rect class="key" x="399.6" y="388.8" width="48" height="48" rx="8" fill="#363a4f"/>
    <text x="423.6" y="413.8" class="tap transparent">↓</text>
    <rect class="key" x="518.4" y="388.8" width="48" height="48" rx="8" fill="#363a4f"/>
    <text x="542.4" y="413.8" class="tap transparent">↓</text>
    <rect class="key" x="572.4" y="388.8" width="48" height="48" rx="8" fill="#363a4f"/>
    <text x="596.4" y="413.8" class="tap transparent">↓</text>
    <rect class="key" x="626.4" y="388.8" width="48" height="48" rx="8" fill="#363a4f"/>
    <text x="650.4" y="413.8" class="tap transparent">↓</text>
    <rect class="key" x="594" y="259.2" width="48" height="48" rx="8" fill="#8bd5ca"/>
    <text x="618" y="285.2" class="tap" style="font-size:17px;fill:#24273a">N</text>
    <rect class="key" x="648" y="259.2" width="48" height="48" rx="8" fill="#8bd5ca"/>
    <text x="672" y="285.2" class="tap" style="font-size:17px;fill:#24273a">M</text>
    <rect class="key" x="702" y="259.2" width="48" height="48" rx="8" fill="#8bd5ca"/>
    <text x="726" y="285.2" class="tap" style="font-size:17px;fill:#24273a">,</text>
    <rect class="key" x="756" y="259.2" width="48" height="48" rx="8" fill="#8bd5ca"/>
    <text x="780" y="285.2" class="tap" style="font-size:17px;fill:#24273a">.</text>
    <rect class="key" x="810" y="259.2" width="48" height="48" rx="8" fill="#8bd5ca"/>
    <text x="834" y="285.2" class="tap" style="font-size:17px;fill:#24273a">/</text>
    <rect class="key" x="864" y="259.2" width="48" height="48" rx="8" fill="#363a4f"/>
    <text x="888" y="284.2" class="tap transparent">↓</text>
    <rect class="key" x="54" y="324" width="48" height="48" rx="8" fill="#f5a97f"/>
    <text x="78" y="342" class="tap" style="font-size:10px;fill:#24273a">Magic</text>
    <text x="78" y="363" class="hold" style="fill:rgba(36,39,58,0.70)">hold</text>
    <rect class="key" x="108" y="324" width="48" height="48" rx="8" fill="#363a4f"/>
    <text x="132" y="349" class="tap transparent">↓</text>
    <rect class="key" x="162" y="324" width="48" height="48" rx="8" fill="#363a4f"/>
    <text x="186" y="349" class="tap transparent">↓</text>
    <rect class="key" x="216" y="324" width="48" height="48" rx="8" fill="#363a4f"/>
    <text x="240" y="349" class="tap transparent">↓</text>
    <rect class="key" x="270" y="324" width="48" height="48" rx="8" fill="#363a4f"/>
    <text x="294" y="349" class="tap transparent">↓</text>
    <rect class="key" x="291.6" y="459" width="48" height="48" rx="8" fill="#f5a97f"/>
    <text x="315.6" y="477" class="tap" style="font-size:12px;fill:#24273a">BSPC</text>
    <text x="315.6" y="498" class="hold" style="fill:rgba(36,39,58,0.70)">Cursor</text>
    <rect class="key" x="345.6" y="459" width="48" height="48" rx="8" fill="#f5a97f"/>
    <text x="369.6" y="477" class="tap" style="font-size:12px;fill:#24273a">TAB</text>
    <text x="369.6" y="498" class="hold" style="fill:rgba(36,39,58,0.70)">Keypad</text>
    <rect class="key" x="399.6" y="459" width="48" height="48" rx="8" fill="#a6da95"/>
    <text x="423.6" y="477" class="tap" style="font-size:12px;fill:#24273a">Alt</text>
    <rect class="key" x="518.4" y="459" width="48" height="48" rx="8" fill="#a6da95"/>
    <text x="542.4" y="477" class="tap" style="font-size:12px;fill:#24273a">RAlt</text>
    <rect class="key" x="572.4" y="459" width="48" height="48" rx="8" fill="#f5a97f"/>
    <text x="596.4" y="477" class="tap" style="font-size:12px;fill:#24273a">ESC</text>
    <text x="596.4" y="498" class="hold" style="fill:rgba(36,39,58,0.70)">Number</text>
    <rect class="key" x="626.4" y="459" width="48" height="48" rx="8" fill="#f5a97f"/>
    <text x="650.4" y="477" class="tap" style="font-size:12px;fill:#24273a">SPC</text>
    <text x="650.4" y="498" class="hold" style="fill:rgba(36,39,58,0.70)">Symbol</text>
    <rect class="key" x="648" y="324" width="48" height="48" rx="8" fill="#363a4f"/>
    <text x="672" y="349" class="tap transparent">↓</text>
    <rect class="key" x="702" y="324" width="48" height="48" rx="8" fill="#363a4f"/>
    <text x="726" y="349" class="tap transparent">↓</text>
    <rect class="key" x="756" y="324" width="48" height="48" rx="8" fill="#8bd5ca"/>
    <text x="780" y="350" class="tap" style="font-size:17px;fill:#24273a">[</text>
    <rect class="key" x="810" y="324" width="48" height="48" rx="8" fill="#8bd5ca"/>
    <text x="834" y="350" class="tap" style="font-size:17px;fill:#24273a">]</text>
    <rect class="key" x="864" y="324" width="48" height="48" rx="8" fill="#363a4f"/>
    <text x="888" y="349" class="tap transparent">↓</text>
    <rect class="keyboard-boundary" x="98" y="119.6" width="284" height="197.6" rx="18" style="stroke:#8bd5ca"/>
    <rect class="keyboard-boundary" x="584" y="119.6" width="284" height="197.6" rx="18" style="stroke:#8bd5ca"/>
    <rect class="keyboard-boundary" x="281.6" y="449" width="122" height="68" rx="18" style="stroke:#8bd5ca"/>
    <rect class="keyboard-boundary" x="562.4" y="449" width="122" height="68" rx="18" style="stroke:#8bd5ca"/>
    <rect class="keyboard-boundary" x="44" y="119.6" width="338" height="197.6" rx="18" style="stroke:#8aadf4"/>
    <rect class="keyboard-boundary" x="584" y="119.6" width="338" height="197.6" rx="18" style="stroke:#8aadf4"/>
    <rect class="keyboard-boundary" x="281.6" y="449" width="122" height="68" rx="18" style="stroke:#8aadf4"/>
    <rect class="keyboard-boundary" x="562.4" y="449" width="122" height="68" rx="18" style="stroke:#8aadf4"/>
    <rect class="keyboard-boundary" x="44" y="54.8" width="338" height="327.2" rx="18" style="stroke:#f5a97f"/>
    <rect class="keyboard-boundary" x="584" y="54.8" width="338" height="327.2" rx="18" style="stroke:#f5a97f"/>
    <rect class="keyboard-boundary" x="281.6" y="449" width="176" height="68" rx="18" style="stroke:#f5a97f"/>
    <rect class="keyboard-boundary" x="508.4" y="449" width="176" height="68" rx="18" style="stroke:#f5a97f"/>
    <g class="layer-activator" aria-label="Urchin activation key" transform="translate(365.1 484.0)">
          <ellipse cx="0" cy="0" rx="8.2" ry="10.2" style="fill:#24273a;opacity:.72;stroke:#8bd5ca;stroke-width:1.2"/>
          <path d="M -5.8 -0.5 C -5.8 -6.1, 5.8 -6.1, 5.8 -0.5" style="stroke:#8bd5ca"/>
          <path d="M -4.1 2.2 C -4.1 -3.1, 4.1 -3.1, 4.1 2.2" style="stroke:#8bd5ca"/>
          <path d="M -2.2 5.0 C -2.2 .2, 2.2 .2, 2.2 5.0" style="stroke:#8bd5ca"/>
          <path d="M 0 -1.4 L 0 6.4" style="stroke:#8bd5ca"/>
        </g>
        <g class="layer-activator" aria-label="Corne activation key" transform="translate(374.1 484.0)">
          <ellipse cx="0" cy="0" rx="8.2" ry="10.2" style="fill:#24273a;opacity:.72;stroke:#8aadf4;stroke-width:1.2"/>
          <path d="M -5.8 -0.5 C -5.8 -6.1, 5.8 -6.1, 5.8 -0.5" style="stroke:#8aadf4"/>
          <path d="M -4.1 2.2 C -4.1 -3.1, 4.1 -3.1, 4.1 2.2" style="stroke:#8aadf4"/>
          <path d="M -2.2 5.0 C -2.2 .2, 2.2 .2, 2.2 5.0" style="stroke:#8aadf4"/>
          <path d="M 0 -1.4 L 0 6.4" style="stroke:#8aadf4"/>
        </g>
        <g class="layer-activator" aria-label="GO60 activation key" transform="translate(423.6 484.0)">
          <ellipse cx="0" cy="0" rx="8.2" ry="10.2" style="fill:#24273a;opacity:.72;stroke:#f5a97f;stroke-width:1.2"/>
          <path d="M -5.8 -0.5 C -5.8 -6.1, 5.8 -6.1, 5.8 -0.5" style="stroke:#f5a97f"/>
          <path d="M -4.1 2.2 C -4.1 -3.1, 4.1 -3.1, 4.1 2.2" style="stroke:#f5a97f"/>
          <path d="M -2.2 5.0 C -2.2 .2, 2.2 .2, 2.2 5.0" style="stroke:#f5a97f"/>
          <path d="M 0 -1.4 L 0 6.4" style="stroke:#f5a97f"/>
        </g>
        <g class="layer-activator" aria-label="Glove80 activation key" transform="translate(348.0 89.8)">
          <ellipse cx="0" cy="0" rx="8.2" ry="10.2" style="fill:#24273a;opacity:.72;stroke:#c6a0f6;stroke-width:1.2"/>
          <path d="M -5.8 -0.5 C -5.8 -6.1, 5.8 -6.1, 5.8 -0.5" style="stroke:#c6a0f6"/>
          <path d="M -4.1 2.2 C -4.1 -3.1, 4.1 -3.1, 4.1 2.2" style="stroke:#c6a0f6"/>
          <path d="M -2.2 5.0 C -2.2 .2, 2.2 .2, 2.2 5.0" style="stroke:#c6a0f6"/>
          <path d="M 0 -1.4 L 0 6.4" style="stroke:#c6a0f6"/>
        </g>
  </g>
  <g class="shortcut">
  <path d="M 543.0 206 C 543.0 236, 375.6 236, 375.6 739.0"/>
  <circle cx="375.6" cy="739.0" r="4.2"/>
  <path d="M 543.0 206 C 543.0 236, 710.4 236, 710.4 739.0"/>
  <circle cx="710.4" cy="739.0" r="4.2"/>
  <rect x="497.5" y="186" width="91" height="22" rx="11"/>
  <text x="543.0" y="201">Caps Lock</text>
  </g>
  
  
  <line x1="60" y1="831" x2="92" y2="831" class="outline-legend-line" style="stroke:#8bd5ca"/><text x="102" y="835" class="legend-text">Urchin</text>
  <line x1="190" y1="831" x2="222" y2="831" class="outline-legend-line" style="stroke:#8aadf4"/><text x="232" y="835" class="legend-text">Corne</text>
  <line x1="320" y1="831" x2="352" y2="831" class="outline-legend-line" style="stroke:#f5a97f"/><text x="362" y="835" class="legend-text">GO60</text>
  <text x="60" y="859" class="subtitle">Keys are rendered once from the shared layer; colored margins show which physical region exists on each smaller keyboard. Glove80 is the full superset.</text>
</svg>
